<?xml version="1.0" encoding="UTF-8"?>
<svg version="1.1" xmlns="http://www.w3.org/2000/svg" width="512" height="512">
<path d="M0 0 C1.26070313 0.00515625 2.52140625 0.0103125 3.8203125 0.015625 C5.78484375 0.0465625 5.78484375 0.0465625 7.7890625 0.078125 C9.74199219 0.08585938 9.74199219 0.08585938 11.734375 0.09375 C27.99107565 0.22645776 27.99107565 0.22645776 31.3515625 2.828125 C34.95989198 11.31831202 31.27659117 21.67976284 28.04296875 29.75 C20.00168558 47.10528741 6.2632158 61.07180255 -11.5859375 68.328125 C-30.80505207 74.80219926 -51.49842059 74.24531443 -69.8984375 65.578125 C-87.63800932 55.98525872 -100.13345102 41.33874687 -106.3359375 21.98828125 C-107.81306001 16.15159578 -109.23728741 8.83166467 -106.59228516 3.2199707 C-103.50709772 0.31085444 -100.14291232 0.75633029 -96.12109375 0.796875 C-95.29137558 0.7930481 -94.46165741 0.78922119 -93.60679626 0.78527832 C-91.85251655 0.78255721 -90.0981964 0.78993241 -88.34399414 0.80664062 C-85.66134868 0.82802209 -82.98138943 0.80686153 -80.29882812 0.78125 C-78.59374409 0.78389377 -76.88866174 0.78901978 -75.18359375 0.796875 C-73.98187279 0.78472961 -73.98187279 0.78472961 -72.75587463 0.77233887 C-69.15600121 0.83279347 -67.02889049 0.99277884 -64.11669922 3.19750977 C-62.34707971 5.66058305 -61.52136396 7.86525643 -60.6484375 10.765625 C-58.16494931 18.0324854 -54.07654309 21.3773216 -47.5859375 25.328125 C-41.08197528 27.49611241 -32.40307636 27.63593664 -26.0859375 24.765625 C-18.69733314 20.21273233 -15.73735239 14.0252493 -12.95703125 6 C-10.1402258 0.51084065 -5.78253104 -0.04723093 0 0 Z " fill="#FC7012" transform="translate(287.5859375,252.671875)"/>
<path d="M0 0 C5.92822669 4.85036729 11.43152514 10.44509971 12.75 18.25 C13.60852462 29.05667865 13.77013352 38.80868815 6.83203125 47.7109375 C0.18238699 54.9843537 -7.58046588 58.51008205 -17.35546875 59.453125 C-27.1194169 59.67295122 -35.86748074 56.74152555 -43.25 50.25 C-49.79479212 42.66204232 -52.92885515 34.07542871 -52.59375 24.078125 C-51.53433983 15.36206856 -47.76321928 7.20791817 -41.25 1.25 C-27.15136282 -7.52700218 -14.65001417 -7.88846917 0 0 Z " fill="#5B6BEC" transform="translate(223.25,186.75)"/>
<path d="M0 0 C8.48282799 6.34126158 15.3773249 16.24693051 17.3828125 26.78125 C17.82642041 33.10266265 17.82642041 33.10266265 16.28955078 35.45361328 C13.45207256 37.42931194 11.06246464 37.30373773 7.625 37.4609375 C6.92921844 37.49395966 6.23343689 37.52698181 5.51657104 37.56100464 C-3.47896643 37.93822543 -12.48699218 37.93071444 -21.48876953 37.91162109 C-24.48084609 37.90627028 -27.47277177 37.91159534 -30.46484375 37.91796875 C-39.62903259 37.92231098 -48.78244941 37.83153694 -57.9375 37.3984375 C-58.69022186 37.36807404 -59.44294373 37.33771057 -60.21847534 37.306427 C-65.37872914 37.01970836 -65.37872914 37.01970836 -67.6171875 34.78125 C-68.7167942 25.04187638 -65.07268467 16.73437922 -59.3046875 8.96875 C-53.02784291 1.50146936 -46.98823628 -3.25443865 -37.6171875 -6.21875 C-37.01648438 -6.41210938 -36.41578125 -6.60546875 -35.796875 -6.8046875 C-23.12655359 -9.21159443 -10.80869406 -6.91214291 0 0 Z " fill="#59BC4A" transform="translate(323.6171875,204.21875)"/>
<path d="M0 0 C1.26070313 0.00515625 2.52140625 0.0103125 3.8203125 0.015625 C5.78484375 0.0465625 5.78484375 0.0465625 7.7890625 0.078125 C9.74199219 0.08585938 9.74199219 0.08585938 11.734375 0.09375 C27.99107565 0.22645776 27.99107565 0.22645776 31.3515625 2.828125 C34.51818036 10.27899056 31.84363031 18.99196908 29.4140625 26.328125 C27.90755264 29.75812513 26.24344896 33.05981402 24.4140625 36.328125 C23.00240094 33.50480189 23.86257714 32.07545811 24.7265625 29.078125 C25.15001953 27.58345703 25.15001953 27.58345703 25.58203125 26.05859375 C26.16465025 24.14661871 26.8242068 22.25719265 27.5390625 20.390625 C28.92903718 15.52571362 28.9938869 10.37023218 29.4140625 5.328125 C10.6040625 4.833125 10.6040625 4.833125 -8.5859375 4.328125 C-9.2459375 7.298125 -9.9059375 10.268125 -10.5859375 13.328125 C-11.2459375 13.658125 -11.9059375 13.988125 -12.5859375 14.328125 C-13.23807042 16.35275755 -13.23807042 16.35275755 -13.5859375 18.328125 C-14.2459375 18.328125 -14.9059375 18.328125 -15.5859375 18.328125 C-15.96685547 19.23691406 -15.96685547 19.23691406 -16.35546875 20.1640625 C-18.96870635 24.76004228 -24.25318772 26.8192569 -29.0234375 28.640625 C-36.63052932 30.10866026 -43.51186411 29.77041964 -50.5859375 26.328125 C-50.9159375 25.668125 -51.2459375 25.008125 -51.5859375 24.328125 C-50.7196875 24.658125 -49.8534375 24.988125 -48.9609375 25.328125 C-41.85568731 27.32511996 -32.91818182 27.83289461 -26.0859375 24.765625 C-18.69733314 20.21273233 -15.73735239 14.0252493 -12.95703125 6 C-10.1402258 0.51084065 -5.78253104 -0.04723093 0 0 Z " fill="#DE7B35" transform="translate(287.5859375,252.671875)"/>
<path d="M0 0 C0.495 0.99 0.495 0.99 1 2 C-11.06661867 18.94058621 -25.02315106 31.22864786 -45.8125 35.375 C-64.0295606 37.72243331 -82.16010553 36.08910476 -98 26 C-99.37418963 24.70881511 -100.72151912 23.38601666 -102 22 C-98.30435765 22.98047654 -95.00262711 23.99882718 -91.5 25.5625 C-87.93953263 27.02483481 -84.81428477 27.61078727 -81 28 C-80.67 28.99 -80.34 29.98 -80 31 C-77.36 31.33 -74.72 31.66 -72 32 C-72 32.66 -72 33.32 -72 34 C-62.1 33.505 -62.1 33.505 -52 33 C-52 32.67 -52 32.34 -52 32 C-51.00419922 31.92652344 -51.00419922 31.92652344 -49.98828125 31.8515625 C-43.2568203 31.35949283 -43.2568203 31.35949283 -37 29 C-36.67 28.34 -36.34 27.68 -36 27 C-33.71484375 26.5859375 -33.71484375 26.5859375 -30.9375 26.375 C-30.01839844 26.30023438 -29.09929687 26.22546875 -28.15234375 26.1484375 C-27.44207031 26.09945313 -26.73179687 26.05046875 -26 26 C-26 25.34 -26 24.68 -26 24 C-24.948125 23.649375 -23.89625 23.29875 -22.8125 22.9375 C-15.33910664 19.66601455 -12.6351413 11.45925374 -9.4296875 4.4765625 C-8 2 -8 2 -5 1 C-3.33637583 0.65179959 -1.67004829 0.31595508 0 0 Z " fill="#EFA36A" transform="translate(310,289)"/>
<path d="M0 0 C0.93423645 3.01031744 1.04449911 3.86650268 0 7 C-0.66 7.61875 -1.32 8.2375 -2 8.875 C-4.27060644 11.28751935 -4.64008575 12.76077175 -5 16 C-5.66 16 -6.32 16 -7 16 C-7.33 18.97 -7.66 21.94 -8 25 C18.07 25 44.14 25 71 25 C71.33 24.34 71.66 23.68 72 23 C72.66 23 73.32 23 74 23 C73.07846031 16.75535607 72.12284188 12.89587473 68 8 C67.10048412 5.34642814 66.5603411 2.75501039 66 0 C71.24730029 4.27557802 74.71663392 11.39404198 76 18 C76.44360791 24.32141265 76.44360791 24.32141265 74.90673828 26.67236328 C72.06926006 28.64806194 69.67965214 28.52248773 66.2421875 28.6796875 C65.54640594 28.71270966 64.85062439 28.74573181 64.13375854 28.77975464 C55.13822107 29.15697543 46.13019532 29.14946444 37.12841797 29.13037109 C34.13634141 29.12502028 31.14441573 29.13034534 28.15234375 29.13671875 C18.98815491 29.14106098 9.83473809 29.05028694 0.6796875 28.6171875 C-0.07303436 28.58682404 -0.82575623 28.55646057 -1.60128784 28.525177 C-6.76154164 28.23845836 -6.76154164 28.23845836 -9 26 C-9.99882585 17.15325678 -7.20396134 9.21816492 -1.828125 2.140625 C-1.22484375 1.43421875 -0.6215625 0.7278125 0 0 Z " fill="#7ABC6E" transform="translate(265,213)"/>
<path d="M0 0 C0.82971817 -0.0038269 1.65943634 -0.00765381 2.51429749 -0.01159668 C4.2685772 -0.01431779 6.02289735 -0.00694259 7.77709961 0.00976562 C10.45974507 0.03114709 13.13970432 0.00998653 15.82226562 -0.015625 C17.52734966 -0.01298123 19.23243201 -0.00785522 20.9375 0 C22.13922096 -0.01214539 22.13922096 -0.01214539 23.36521912 -0.02453613 C26.96509254 0.03591847 29.09220326 0.19590384 32.00439453 2.40063477 C33.77401404 4.86370805 34.59972979 7.06838143 35.47265625 9.96875 C37.04450336 14.63458864 38.70763192 17.30807162 42.53515625 20.53125 C43.19515625 21.52125 43.85515625 22.51125 44.53515625 23.53125 C41.13202887 22.47249926 38.52162394 21.52222846 35.53515625 19.53125 C35.53515625 18.87125 35.53515625 18.21125 35.53515625 17.53125 C34.54515625 17.20125 33.55515625 16.87125 32.53515625 16.53125 C32.33599609 15.24927734 32.33599609 15.24927734 32.1328125 13.94140625 C31.95621094 12.83667969 31.77960938 11.73195313 31.59765625 10.59375 C31.42363281 9.49160156 31.24960938 8.38945312 31.0703125 7.25390625 C30.81670489 4.62698071 30.81670489 4.62698071 29.53515625 3.53125 C26.72352245 3.44263008 23.9365737 3.41602645 21.125 3.43359375 C19.86194786 3.43571617 19.86194786 3.43571617 18.57337952 3.43788147 C15.8731029 3.44349737 13.17290797 3.45605252 10.47265625 3.46875 C8.64648557 3.47376295 6.82031359 3.47832621 4.99414062 3.48242188 C0.50778083 3.49347196 -3.97851759 3.51074721 -8.46484375 3.53125 C-8.33706595 5.78690404 -8.19984488 8.04202458 -8.05859375 10.296875 C-7.94547852 12.18067871 -7.94547852 12.18067871 -7.83007812 14.10253906 C-7.52692532 16.94844678 -7.2096909 18.77196367 -5.96484375 21.28125 C-3.95646582 25.63273552 -3.74146321 29.7905648 -3.46484375 34.53125 C-5.9271936 31.54125375 -7.30536125 28.73985977 -8.58984375 25.09375 C-8.92242187 24.16691406 -9.255 23.24007813 -9.59765625 22.28515625 C-10.94941236 17.99241726 -11.63139332 13.96811877 -11.71484375 9.46875 C-11.740625 8.63214844 -11.76640625 7.79554688 -11.79296875 6.93359375 C-10.82879592 -0.12552874 -6.1287851 -0.06178544 0 0 Z " fill="#F0BC96" transform="translate(191.46484375,253.46875)"/>
<path d="M0 0 C1.83789602 1.58595971 3.39020105 3.17556118 5 5 C4.67 5.66 4.34 6.32 4 7 C3.26394531 6.37351563 2.52789062 5.74703125 1.76953125 5.1015625 C0.79371094 4.28429687 -0.18210937 3.46703125 -1.1875 2.625 C-2.15042969 1.81289062 -3.11335938 1.00078125 -4.10546875 0.1640625 C-12.55829591 -6.15559505 -24.76127394 -6.99746901 -35 -6 C-37.74565639 -5.20280543 -37.74565639 -5.20280543 -40 -4 C-40.33 -3.34 -40.66 -2.68 -41 -2 C-42.3921875 -1.814375 -42.3921875 -1.814375 -43.8125 -1.625 C-47.05025529 -1.30560521 -47.05025529 -1.30560521 -48.8125 0.875 C-52.01388191 3.98491385 -55.77067773 4.80711423 -60 6 C-45.22244435 -13.42352958 -18.97092854 -13.43074587 0 0 Z " fill="#9DD895" transform="translate(326,206)"/>
<path d="M0 0 C3.70877489 3.70877489 3.2703054 8.11451508 3.3125 13.0625 C3.30321542 22.86701488 1.63746577 29.47817904 -5.125 36.875 C-11.97684582 43.27457877 -20.47579428 46.20185382 -29.8125 46.0625 C-30.60269531 46.05347656 -31.39289063 46.04445312 -32.20703125 46.03515625 C-32.79871094 46.02355469 -33.39039063 46.01195312 -34 46 C-34 45.67 -34 45.34 -34 45 C-28.61972975 43.80911014 -23.54708616 42.7080481 -18 43 C-18 42.34 -18 41.68 -18 41 C-15 39 -15 39 -11 39 C-10.67 38.01 -10.34 37.02 -10 36 C-9.01 36 -8.02 36 -7 36 C-7 34.35 -7 32.7 -7 31 C-6.21625 30.87625 -5.4325 30.7525 -4.625 30.625 C-1.60724152 28.7568638 -1.47491173 28.36733026 -0.6875 25.0625 C0.61539658 16.81893941 0.15372286 8.31811485 0 0 Z " fill="#929DDF" transform="translate(233,200)"/>
<path d="M0 0 C1.26714844 -0.00128906 2.53429687 -0.00257813 3.83984375 -0.00390625 C4.50032715 -0.00181152 5.16081055 0.0002832 5.84130859 0.00244141 C7.83821019 0.00775617 9.83513127 0.00198431 11.83203125 -0.00390625 C13.10433594 -0.00261719 14.37664062 -0.00132812 15.6875 0 C17.42628418 0.00169189 17.42628418 0.00169189 19.20019531 0.00341797 C28.61198556 0.36064003 28.61198556 0.36064003 31.546875 2.6328125 C33.73938494 7.79165942 32.98608559 13.79805898 31.609375 19.1328125 C31.279375 19.1328125 30.949375 19.1328125 30.609375 19.1328125 C30.114375 11.7078125 30.114375 11.7078125 29.609375 4.1328125 C24.09180021 4.10813641 18.57425739 4.08996394 13.05664062 4.07788086 C11.17870525 4.07284487 9.3007738 4.06601579 7.42285156 4.05737305 C4.72720368 4.04527537 2.03160753 4.03957693 -0.6640625 4.03515625 C-1.50681732 4.02999496 -2.34957214 4.02483368 -3.21786499 4.01951599 C-7.43793861 3.89914211 -7.43793861 3.89914211 -11.390625 5.1328125 C-10.578125 3.1953125 -10.578125 3.1953125 -9.390625 1.1328125 C-6.04824864 0.01868705 -3.52050935 0.00343896 0 0 Z " fill="#F8D7B2" transform="translate(287.390625,252.8671875)"/>
<path d="M0 0 C0.93423645 3.01031744 1.04449911 3.86650268 0 7 C-0.66 7.61875 -1.32 8.2375 -2 8.875 C-4.27060644 11.28751935 -4.64008575 12.76077175 -5 16 C-5.66 16 -6.32 16 -7 16 C-7.02689216 17.47906892 -7.04634621 18.95827483 -7.0625 20.4375 C-7.07410156 21.26121094 -7.08570313 22.08492187 -7.09765625 22.93359375 C-7.23267348 24.99163938 -7.23267348 24.99163938 -6 26 C-3.34780806 26.23202651 -0.72120798 26.38658315 1.9375 26.5 C2.81108154 26.53988037 3.68466309 26.57976074 4.5847168 26.62084961 C22.04566182 27.3533269 39.52857869 27.62337201 57 28 C57 28.33 57 28.66 57 29 C50.77848592 29.02507742 44.55700249 29.04303484 38.33544922 29.05493164 C36.22737108 29.05990125 34.11929627 29.06667926 32.01123047 29.07543945 C21.54038902 29.11780126 11.07841034 29.12078698 0.6171875 28.62109375 C-0.13158661 28.59048355 -0.88036072 28.55987335 -1.65182495 28.52833557 C-6.75998376 28.24001624 -6.75998376 28.24001624 -9 26 C-9.99882585 17.15325678 -7.20396134 9.21816492 -1.828125 2.140625 C-1.22484375 1.43421875 -0.6215625 0.7278125 0 0 Z " fill="#CFEDC5" transform="translate(265,213)"/>
<path d="M0 0 C0.33 0.66 0.66 1.32 1 2 C-2.09176741 6.25825841 -5.27148705 10.44391522 -8.625 14.5 C-9.17414063 15.1703125 -9.72328125 15.840625 -10.2890625 16.53125 C-12 18 -12 18 -16 18 C-15.73058594 17.46761719 -15.46117187 16.93523437 -15.18359375 16.38671875 C-14.30130592 14.60758388 -13.44312822 12.81645358 -12.59765625 11.01953125 C-12.09105469 9.96121094 -11.58445312 8.90289062 -11.0625 7.8125 C-10.55847656 6.74644531 -10.05445313 5.68039062 -9.53515625 4.58203125 C-8 2 -8 2 -5 1 C-3.33637583 0.65179959 -1.67004829 0.31595508 0 0 Z " fill="#F07624" transform="translate(310,289)"/>
<path d="M0 0 C3.69564235 0.98047654 6.99737289 1.99882718 10.5 3.5625 C14.06046737 5.02483481 17.18571523 5.61078727 21 6 C21.33 6.99 21.66 7.98 22 9 C24.64 9.33 27.28 9.66 30 10 C30 10.66 30 11.32 30 12 C35.94 12 41.88 12 48 12 C48 12.33 48 12.66 48 13 C31.16874587 13.62063907 17.51139139 12.48043862 3 3 C1.1953125 1.31640625 1.1953125 1.31640625 0 0 Z " fill="#E99559" transform="translate(208,311)"/>
<path d="M0 0 C3.65721522 2.992267 7.18165751 6.25388884 9.75 10.25 C9.255 11.735 9.255 11.735 8.75 13.25 C6.51757788 11.17153802 4.79757383 9.33127197 3.25 6.6875 C1.21438975 3.37963334 -0.78069689 1.69895373 -4.5 0.5625 C-5.0775 0.459375 -5.655 0.35625 -6.25 0.25 C-6.25 -0.41 -6.25 -1.07 -6.25 -1.75 C-8.23 -1.75 -10.21 -1.75 -12.25 -1.75 C-12.25 -2.41 -12.25 -3.07 -12.25 -3.75 C-13.33539063 -3.605625 -14.42078125 -3.46125 -15.5390625 -3.3125 C-16.9843491 -3.12480044 -18.42966307 -2.93731162 -19.875 -2.75 C-20.58785156 -2.65460938 -21.30070313 -2.55921875 -22.03515625 -2.4609375 C-26.13821609 -1.93393899 -30.10245742 -1.64533016 -34.25 -1.75 C-25.32269699 -10.67730301 -9.38495399 -5.05343676 0 0 Z " fill="#C6CEF1" transform="translate(223.25,186.75)"/>
<path d="M0 0 C0.33 0.66 0.66 1.32 1 2 C1.99 2.33 2.98 2.66 4 3 C2.68 3 1.36 3 0 3 C0.0297604 12.12691768 0.0297604 12.12691768 2.5 20.75 C4.50837793 25.10148552 4.72338054 29.2593148 5 34 C2.53765015 31.01000375 1.1594825 28.20860977 -0.125 24.5625 C-0.45757812 23.63566406 -0.79015625 22.70882813 -1.1328125 21.75390625 C-2.48456861 17.46116726 -3.16654957 13.43686877 -3.25 8.9375 C-3.27578125 8.10089844 -3.3015625 7.26429688 -3.328125 6.40234375 C-2.93391473 3.51616142 -1.89807968 2.16281185 0 0 Z " fill="#EFAC74" transform="translate(183,254)"/>
<path d="M0 0 C1.07310858 3.27185553 0.89263102 5.42947592 0.0625 8.75 C-0.13214844 9.54921875 -0.32679688 10.3484375 -0.52734375 11.171875 C-0.76130859 12.07679688 -0.76130859 12.07679688 -1 13 C-1.66 13 -2.32 13 -3 13 C-3.38091797 13.90878906 -3.38091797 13.90878906 -3.76953125 14.8359375 C-6.38276885 19.43191728 -11.66725022 21.4911319 -16.4375 23.3125 C-24.04459182 24.78053526 -30.92592661 24.44229464 -38 21 C-38.33 20.34 -38.66 19.68 -39 19 C-38.13375 19.33 -37.2675 19.66 -36.375 20 C-29.26974981 21.99699496 -20.33224432 22.50476961 -13.5 19.4375 C-5.96579189 14.81716298 -2.78322343 8.13683556 0 0 Z " fill="#F9D8B1" transform="translate(275,258)"/>
<path d="M0 0 C-0.625 1.9375 -0.625 1.9375 -2 4 C-3.99760305 4.34740923 -5.99787771 4.67966043 -8 5 C-8.598125 5.61875 -9.19625 6.2375 -9.8125 6.875 C-13.01388191 9.98491385 -16.77067773 10.80711423 -21 12 C-15.41256914 4.65591475 -9.68681729 -1.00904347 0 0 Z " fill="#96CF8C" transform="translate(287,200)"/>
<path d="M0 0 C0.33 0.99 0.66 1.98 1 3 C-7.45977188 6.86732429 -14.76194702 7.48550351 -24 7 C-24.33 6.01 -24.66 5.02 -25 4 C-25.66 3.67 -26.32 3.34 -27 3 C-26.030625 3.165 -25.06125 3.33 -24.0625 3.5 C-14.98944688 4.71822557 -8.50340861 3.56030566 0 0 Z " fill="#E87F38" transform="translate(266,277)"/>
<path d="M0 0 C2.97 0.495 2.97 0.495 6 1 C6 1.66 6 2.32 6 3 C12.6 3.66 19.2 4.32 26 5 C23.30110992 7.69889008 21.77157544 7.36189059 18 7.4375 C11.40817396 7.35693324 6.39754882 5.80596391 1 2 C0.67 1.34 0.34 0.68 0 0 Z " fill="#707DD6" transform="translate(183,238)"/>
<path d="M0 0 C0.99 0.33 1.98 0.66 3 1 C3.70211894 2.65204456 4.36971413 4.31923769 5 6 C5.66 6.33 6.32 6.66 7 7 C7.5878125 8.0828125 7.5878125 8.0828125 8.1875 9.1875 C9.85772115 11.77922248 11.15761689 13.09157418 13.5 15 C16.41100509 17.37557709 18.2978324 19.5956648 20 23 C11.00807862 20.10804637 4.41126651 10.02677514 0 2 C0 1.34 0 0.68 0 0 Z " fill="#F2B887" transform="translate(188,288)"/>
<path d="M0 0 C2.21447392 2.21447392 2.92637276 3.76702078 3.11352539 6.90112305 C3.10567017 7.94586792 3.10567017 7.94586792 3.09765625 9.01171875 C3.09282227 10.14770508 3.09282227 10.14770508 3.08789062 11.30664062 C3.07951172 12.09232422 3.07113281 12.87800781 3.0625 13.6875 C3.05798828 14.48478516 3.05347656 15.28207031 3.04882812 16.10351562 C3.0370585 18.06904257 3.01912348 20.03453085 3 22 C2.34 22 1.68 22 1 22 C0.67 22.99 0.34 23.98 0 25 C0 16.75 0 8.5 0 0 Z " fill="#929DE4" transform="translate(233,200)"/>
<path d="M0 0 C-1.26117725 3.88862987 -2.45264167 5.89375599 -6 8 C-6.66 8 -7.32 8 -8 8 C-8 8.66 -8 9.32 -8 10 C-8.99 10.33 -9.98 10.66 -11 11 C-11.33 11.99 -11.66 12.98 -12 14 C-12.66 14 -13.32 14 -14 14 C-12.21042205 8.46857724 -9.07713199 4.44916185 -4.3125 1.125 C-2 0 -2 0 0 0 Z " fill="#98A6E4" transform="translate(189,185)"/>
<path d="M0 0 C0.33 0.66 0.66 1.32 1 2 C1.66 2 2.32 2 3 2 C4.1484375 3.609375 4.1484375 3.609375 5.375 5.75 C7.28242023 8.94224039 9.19835311 11.50964721 12 14 C8.59687262 12.94124926 5.98646769 11.99097846 3 10 C3 9.34 3 8.68 3 8 C2.01 7.67 1.02 7.34 0 7 C0 4.69 0 2.38 0 0 Z " fill="#F1B380" transform="translate(224,263)"/>
<path d="M0 0 C5.22004943 4.25337361 8.76722759 11.40734755 10 18 C10.03888349 20.33300933 10.0448635 22.66709801 10 25 C9.34 25.33 8.68 25.66 8 26 C8.0825 25.030625 8.165 24.06125 8.25 23.0625 C8.26974681 18.22453098 6.32570983 14.16760411 4 10 C3.34 9.34 2.68 8.68 2 8 C1.1436973 5.36766208 0.61070073 2.70453182 0 0 Z " fill="#BDE4B8" transform="translate(331,213)"/>
<path d="M0 0 C7.95574407 1.19336161 14.752628 6.0529784 20 12 C19.67 12.66 19.34 13.32 19 14 C18.29875 13.38511719 17.5975 12.77023438 16.875 12.13671875 C11.42927477 7.49749358 6.91336165 3.95661179 0 2 C0 1.34 0 0.68 0 0 Z " fill="#D1EACC" transform="translate(311,199)"/>
<path d="M0 0 C1.12864571 2.82503443 0.99492545 4.01633704 0.07421875 6.98046875 C-0.38339844 8.03878906 -0.84101563 9.09710938 -1.3125 10.1875 C-1.76238281 11.25355469 -2.21226562 12.31960938 -2.67578125 13.41796875 C-4 16 -4 16 -6 17 C-5.52396226 14.87429688 -5.04407402 12.74945573 -4.5625 10.625 C-4.29566406 9.44164062 -4.02882813 8.25828125 -3.75390625 7.0390625 C-3 4 -3 4 -2 2 C-1.34 2 -0.68 2 0 2 C0 1.34 0 0.68 0 0 Z " fill="#F1B584" transform="translate(317,272)"/>
<path d="M0 0 C0.33 0.66 0.66 1.32 1 2 C-3.06133537 7.59363406 -7.3791401 12.85963514 -12 18 C-12 15 -12 15 -11 12 C-9.35360035 10.64172029 -7.68704193 9.30745749 -6 8 C-5.67 7.34 -5.34 6.68 -5 6 C-4.34 6 -3.68 6 -3 6 C-2.87625 5.195625 -2.7525 4.39125 -2.625 3.5625 C-2.41875 2.716875 -2.2125 1.87125 -2 1 C-1.34 0.67 -0.68 0.34 0 0 Z " fill="#F2C086" transform="translate(310,289)"/>
<path d="M0 0 C0.93423645 3.01031744 1.04449911 3.86650268 0 7 C-0.66 7.61875 -1.32 8.2375 -2 8.875 C-4.27060644 11.28751935 -4.64008575 12.76077175 -5 16 C-5.66 16 -6.32 16 -7 16 C-6.71601983 9.32646591 -3.92194468 5.28922815 0 0 Z " fill="#8CCB82" transform="translate(265,213)"/>
<path d="M0 0 C2.9375 0.8125 2.9375 0.8125 6 2 C6.33 2.99 6.66 3.98 7 5 C9.0251206 6.35034683 9.0251206 6.35034683 11.4375 7.5 C14.75948619 9.16365921 15.87414755 9.81122132 18 13 C10.89963943 10.97132555 5.97824568 7.40495245 1 2 C0.67 1.34 0.34 0.68 0 0 Z " fill="#E6782F" transform="translate(200,302)"/>
<path d="M0 0 C1.07310858 3.27185553 0.89263102 5.42947592 0.0625 8.75 C-0.13214844 9.54921875 -0.32679688 10.3484375 -0.52734375 11.171875 C-0.68332031 11.77515625 -0.83929688 12.3784375 -1 13 C-1.66 13 -2.32 13 -3 13 C-3.2475 13.61875 -3.495 14.2375 -3.75 14.875 C-5.20628639 17.35068687 -6.37812506 17.95125002 -9 19 C-8.39671875 18.32582031 -7.7934375 17.65164063 -7.171875 16.95703125 C-4.72873307 13.63066715 -3.5633171 10.59097027 -2.25 6.6875 C-2.02957031 6.04232422 -1.80914062 5.39714844 -1.58203125 4.73242188 C-1.04557015 3.15802516 -0.52148643 1.57941996 0 0 Z " fill="#F2B98D" transform="translate(275,258)"/>
<path d="M0 0 C-0.66 1.32 -1.32 2.64 -2 4 C-5.3 4 -8.6 4 -12 4 C-7.73879649 -0.26120351 -5.91872136 -0.10960595 0 0 Z " fill="#9CD294" transform="translate(287,200)"/>
<path d="M0 0 C5.2318379 1.42686488 8.69448904 4.8480644 12 9 C12.9375 11.9375 12.9375 11.9375 13 14 C9.30645893 11.30471327 7.28890275 8.91020886 5 5 C3.37163262 3.2958946 1.71230248 1.61974559 0 0 Z " fill="#BBC3EF" transform="translate(220,186)"/>
<path d="M0 0 C1.27230469 0.00902344 2.54460937 0.01804688 3.85546875 0.02734375 C5.31919922 0.04474609 5.31919922 0.04474609 6.8125 0.0625 C6.8125 0.3925 6.8125 0.7225 6.8125 1.0625 C4.77178485 1.40160994 2.72987379 1.73352704 0.6875 2.0625 C-1.01792969 2.3409375 -1.01792969 2.3409375 -2.7578125 2.625 C-5.94887602 3.03206049 -8.97567791 3.14059902 -12.1875 3.0625 C-8.55002918 -0.57497082 -4.89839935 -0.04493944 0 0 Z " fill="#99A3E1" transform="translate(201.1875,181.9375)"/>
<path d="M0 0 C0 0.66 0 1.32 0 2 C-5.72695683 4.71276903 -10.12957232 3.50821265 -16 2 C-16 1.67 -16 1.34 -16 1 C-10.59255982 0.22750855 -5.46137814 -0.09752461 0 0 Z " fill="#5B6DDB" transform="translate(211,183)"/>
<path d="M0 0 C0.2475 0.61875 0.495 1.2375 0.75 1.875 C2.20628639 4.35068687 3.37812506 4.95125002 6 6 C6 7.32 6 8.64 6 10 C6.66 10 7.32 10 8 10 C8.33 11.65 8.66 13.3 9 15 C8.34 14.67 7.68 14.34 7 14 C7 13.01 7 12.02 7 11 C6.01 10.67 5.02 10.34 4 10 C3.67 8.35 3.34 6.7 3 5 C2.01 4.67 1.02 4.34 0 4 C0 2.68 0 1.36 0 0 Z " fill="#E67B31" transform="translate(188,284)"/>
<path d="M0 0 C1.89492188 0.01353516 1.89492188 0.01353516 3.828125 0.02734375 C4.79234375 0.03894531 5.7565625 0.05054688 6.75 0.0625 C6.75 0.3925 6.75 0.7225 6.75 1.0625 C-0.30453001 2.26693195 -7.08437211 3.34350502 -14.25 3.0625 C-9.43910622 -0.14476252 -5.75185764 -0.05325794 0 0 Z " fill="#D3F1CC" transform="translate(297.25,196.9375)"/>
<path d="M0 0 C0.99 0.33 1.98 0.66 3 1 C1.07158542 2.53376229 -0.86621794 4.0517182 -2.8125 5.5625 C-3.35970703 6.00013672 -3.90691406 6.43777344 -4.47070312 6.88867188 C-5.9221958 8.00588139 -7.45810571 9.01128867 -9 10 C-9.99 9.67 -10.98 9.34 -12 9 C-11.34 9 -10.68 9 -10 9 C-10 8.01 -10 7.02 -10 6 C-8.906875 5.566875 -7.81375 5.13375 -6.6875 4.6875 C-3.90591207 3.50504359 -1.93638061 2.39199957 0 0 Z " fill="#F2BE8F" transform="translate(294,307)"/>
<path d="M0 0 C0.66 0.33 1.32 0.66 2 1 C-0.31 3.64 -2.62 6.28 -5 9 C-5.99 8.34 -6.98 7.68 -8 7 C-7.9375 5.1875 -7.9375 5.1875 -7 3 C-3.5625 1.1875 -3.5625 1.1875 0 0 Z " fill="#63B056" transform="translate(272,209)"/>
<path d="M0 0 C0.66 0 1.32 0 2 0 C2 1.32 2 2.64 2 4 C1.34 4 0.68 4 0 4 C-0.144375 4.61875 -0.28875 5.2375 -0.4375 5.875 C-1 8 -1 8 -2 10 C-2.99 10 -3.98 10 -5 10 C-3.33333333 6.66666667 -1.66666667 3.33333333 0 0 Z " fill="#EB7A27" transform="translate(299,297)"/>
<path d="M0 0 C0.33 0 0.66 0 1 0 C1.21755666 5.4389165 1.10428384 9.87080814 -1 15 C-1.33 15 -1.66 15 -2 15 C-2.3690205 4.44191344 -2.3690205 4.44191344 0 0 Z " fill="#6373D2" transform="translate(174,203)"/>
<path d="M0 0 C0.66 0.33 1.32 0.66 2 1 C1.57742724 2.4835001 1.13643678 3.96176424 0.6875 5.4375 C0.44386719 6.26121094 0.20023437 7.08492188 -0.05078125 7.93359375 C-0.36402344 8.61550781 -0.67726563 9.29742187 -1 10 C-1.99 10.33 -2.98 10.66 -4 11 C-3.71758359 9.53984709 -3.42373386 8.08190207 -3.125 6.625 C-2.96257812 5.81289063 -2.80015625 5.00078125 -2.6328125 4.1640625 C-2 2 -2 2 0 0 Z " fill="#E58845" transform="translate(278,256)"/>
<path d="M0 0 C0.99 0.33 1.98 0.66 3 1 C3.144375 1.639375 3.28875 2.27875 3.4375 2.9375 C3.80104993 5.20311706 3.80104993 5.20311706 6.0625 6.25 C6.701875 6.4975 7.34125 6.745 8 7 C8 7.99 8 8.98 8 10 C3.79236776 8.4972742 2.1972242 5.76667005 0 2 C0 1.34 0 0.68 0 0 Z " fill="#8F9CDE" transform="translate(175,228)"/>
<path d="M0 0 C3.63 1.98 7.26 3.96 11 6 C11 6.33 11 6.66 11 7 C9.35 7 7.7 7 6 7 C5.67 6.34 5.34 5.68 5 5 C2.97536745 4.34786708 2.97536745 4.34786708 1 4 C0.67 2.68 0.34 1.36 0 0 Z " fill="#E98442" transform="translate(228,273)"/>
<path d="M0 0 C0.33 0.66 0.66 1.32 1 2 C3.32156597 2.40729228 5.6568787 2.74438677 8 3 C6 4 4 5 2 6 C1.34 5.67 0.68 5.34 0 5 C0 3.35 0 1.7 0 0 Z " fill="#F0741C" transform="translate(233,278)"/>
<path d="M0 0 C0.33 0.66 0.66 1.32 1 2 C1.99 2.33 2.98 2.66 4 3 C2.68 3 1.36 3 0 3 C-0.33 6.3 -0.66 9.6 -1 13 C-1.33 13 -1.66 13 -2 13 C-2.05391993 11.20866022 -2.09275571 9.41686101 -2.125 7.625 C-2.14820313 6.62726563 -2.17140625 5.62953125 -2.1953125 4.6015625 C-2 2 -2 2 0 0 Z " fill="#E19654" transform="translate(183,254)"/>
<path d="M0 0 C4.83256305 0.41421969 6.82679218 2.46413986 10 6 C9.67 6.66 9.34 7.32 9 8 C7.49712782 6.85793642 5.99776716 5.71125043 4.5 4.5625 C3.6646875 3.92441406 2.829375 3.28632813 1.96875 2.62890625 C1.3190625 2.09136719 0.669375 1.55382812 0 1 C0 0.67 0 0.34 0 0 Z " fill="#C6EAC1" transform="translate(321,205)"/>
<path d="M0 0 C4.99275057 1.27721526 7.57611908 3.17330957 11 7 C6.96678237 5.78065514 3.45730521 4.44045073 0 2 C0 1.34 0 0.68 0 0 Z " fill="#70B764" transform="translate(314,202)"/>
<path d="M0 0 C3.79303725 1.00193437 6.71536341 1.81024227 10 4 C10 4.66 10 5.32 10 6 C5.56909529 4.79157144 3.01887244 3.48331435 0 0 Z " fill="#F1B782" transform="translate(208,311)"/>
<path d="M0 0 C0.99 0.33 1.98 0.66 3 1 C-1.39453125 5.00390625 -1.39453125 5.00390625 -3 6 C-3.99 5.67 -4.98 5.34 -6 5 C-1.60546875 0.99609375 -1.60546875 0.99609375 0 0 Z " fill="#E17D34" transform="translate(291,307)"/>
<path d="M0 0 C0.66 0 1.32 0 2 0 C2 2.31 2 4.62 2 7 C1.01 7.495 1.01 7.495 0 8 C0 7.01 0 6.02 0 5 C-0.66 4.67 -1.32 4.34 -2 4 C-1.34 2.68 -0.68 1.36 0 0 Z " fill="#F4711C" transform="translate(301,292)"/>
<path d="M0 0 C2.97 0.495 2.97 0.495 6 1 C6 1.66 6 2.32 6 3 C6.66 3 7.32 3 8 3 C8 3.66 8 4.32 8 5 C2.25 3.375 2.25 3.375 0 0 Z " fill="#8790E0" transform="translate(183,238)"/>
<path d="M0 0 C0.75 1.5625 0.75 1.5625 1 4 C-0.13084437 6.50286409 -1.52139516 8.67007722 -3 11 C-4 9 -4 9 -3.0625 5.875 C-2.711875 4.92625 -2.36125 3.9775 -2 3 C-1.34 3 -0.68 3 0 3 C0 2.01 0 1.02 0 0 Z " fill="#C3C9F0" transform="translate(234,222)"/>
<path d="M0 0 C-1 2 -1 2 -3.375 3.1875 C-6 4 -6 4 -9 3 C-5.92807025 0.26939578 -4.09590633 -0.34132553 0 0 Z " fill="#F2BB8F" transform="translate(282,317)"/>
<path d="M0 0 C0.33 0.66 0.66 1.32 1 2 C0.06421005 4.35981813 -0.93347808 6.69631264 -2 9 C-2.33 9 -2.66 9 -3 9 C-2.25 2.25 -2.25 2.25 0 0 Z " fill="#E67E37" transform="translate(312,281)"/>
<path d="M0 0 C0.33 0 0.66 0 1 0 C0.67 2.64 0.34 5.28 0 8 C-1.65 8 -3.3 8 -5 8 C-3.625 6 -3.625 6 -2 4 C-1.34 4 -0.68 4 0 4 C0 2.68 0 1.36 0 0 Z " fill="#77B96B" transform="translate(339,232)"/>
</svg>
